<mxfile host="app.diagrams.net" modified="2022-10-24T06:35:44.639Z" agent="5.0 (Windows NT 10.0; Win64; x64) AppleWebKit/537.36 (KHTML, like Gecko) Chrome/106.0.0.0 Safari/537.36" etag="A1vgv3lTbqpVsK4sardg" version="20.5.1" type="github">
  <diagram id="Kz5wOCr-HFzao9Da_BM4" name="Page-1">
    <mxGraphModel dx="1017" dy="956" grid="1" gridSize="10" guides="1" tooltips="1" connect="1" arrows="1" fold="1" page="1" pageScale="1" pageWidth="850" pageHeight="1100" math="0" shadow="0">
      <root>
        <mxCell id="0" />
        <mxCell id="1" parent="0" />
        <mxCell id="DTTRx-GcrtWQAFBJk2kP-9" value="" style="edgeStyle=orthogonalEdgeStyle;rounded=0;orthogonalLoop=1;jettySize=auto;html=1;" edge="1" parent="1" source="Na3WE7RVyZAJyNIohhtw-49" target="Na3WE7RVyZAJyNIohhtw-57">
          <mxGeometry relative="1" as="geometry" />
        </mxCell>
        <mxCell id="Na3WE7RVyZAJyNIohhtw-49" value="运营部员工" style="ellipse;whiteSpace=wrap;html=1;fontFamily=宋体;" parent="1" vertex="1">
          <mxGeometry x="150" y="10" width="120" height="80" as="geometry" />
        </mxCell>
        <mxCell id="DTTRx-GcrtWQAFBJk2kP-15" value="" style="edgeStyle=orthogonalEdgeStyle;rounded=0;orthogonalLoop=1;jettySize=auto;html=1;" edge="1" parent="1" source="Na3WE7RVyZAJyNIohhtw-51" target="Na3WE7RVyZAJyNIohhtw-74">
          <mxGeometry relative="1" as="geometry" />
        </mxCell>
        <mxCell id="Na3WE7RVyZAJyNIohhtw-51" value="旺店通销售数据" style="shape=document;whiteSpace=wrap;html=1;boundedLbl=1;fontFamily=宋体;" parent="1" vertex="1">
          <mxGeometry x="400" y="10" width="120" height="80" as="geometry" />
        </mxCell>
        <mxCell id="DTTRx-GcrtWQAFBJk2kP-8" value="" style="edgeStyle=orthogonalEdgeStyle;rounded=0;orthogonalLoop=1;jettySize=auto;html=1;" edge="1" parent="1" source="Na3WE7RVyZAJyNIohhtw-57" target="DTTRx-GcrtWQAFBJk2kP-6">
          <mxGeometry relative="1" as="geometry" />
        </mxCell>
        <mxCell id="Na3WE7RVyZAJyNIohhtw-57" value="员工负责范围" style="shape=document;whiteSpace=wrap;html=1;boundedLbl=1;fontFamily=宋体;" parent="1" vertex="1">
          <mxGeometry x="150" y="560" width="120" height="80" as="geometry" />
        </mxCell>
        <mxCell id="Na3WE7RVyZAJyNIohhtw-69" value="数据筛选" style="rounded=0;whiteSpace=wrap;html=1;fontFamily=宋体;" parent="1" vertex="1">
          <mxGeometry x="390" y="270" width="120" height="60" as="geometry" />
        </mxCell>
        <mxCell id="DTTRx-GcrtWQAFBJk2kP-29" value="" style="edgeStyle=orthogonalEdgeStyle;rounded=0;orthogonalLoop=1;jettySize=auto;html=1;" edge="1" parent="1" source="Na3WE7RVyZAJyNIohhtw-74" target="Na3WE7RVyZAJyNIohhtw-69">
          <mxGeometry relative="1" as="geometry" />
        </mxCell>
        <mxCell id="Na3WE7RVyZAJyNIohhtw-74" value="店铺数据" style="shape=document;whiteSpace=wrap;html=1;boundedLbl=1;fontFamily=宋体;" parent="1" vertex="1">
          <mxGeometry x="320" y="150" width="120" height="80" as="geometry" />
        </mxCell>
        <mxCell id="DTTRx-GcrtWQAFBJk2kP-28" value="" style="edgeStyle=orthogonalEdgeStyle;rounded=0;orthogonalLoop=1;jettySize=auto;html=1;" edge="1" parent="1" source="Na3WE7RVyZAJyNIohhtw-75" target="Na3WE7RVyZAJyNIohhtw-69">
          <mxGeometry relative="1" as="geometry" />
        </mxCell>
        <mxCell id="Na3WE7RVyZAJyNIohhtw-75" value="类目/商品数据" style="shape=document;whiteSpace=wrap;html=1;boundedLbl=1;fontFamily=宋体;" parent="1" vertex="1">
          <mxGeometry x="480" y="150" width="120" height="80" as="geometry" />
        </mxCell>
        <mxCell id="DTTRx-GcrtWQAFBJk2kP-1" value="统计数据" style="rounded=0;whiteSpace=wrap;html=1;" vertex="1" parent="1">
          <mxGeometry x="390" y="370" width="120" height="60" as="geometry" />
        </mxCell>
        <mxCell id="DTTRx-GcrtWQAFBJk2kP-2" value="筛选销售数据" style="rounded=0;whiteSpace=wrap;html=1;" vertex="1" parent="1">
          <mxGeometry x="390" y="470" width="120" height="60" as="geometry" />
        </mxCell>
        <mxCell id="DTTRx-GcrtWQAFBJk2kP-3" value="" style="endArrow=classic;html=1;rounded=0;fontFamily=宋体;" edge="1" parent="1" source="Na3WE7RVyZAJyNIohhtw-69" target="DTTRx-GcrtWQAFBJk2kP-1">
          <mxGeometry width="50" height="50" relative="1" as="geometry">
            <mxPoint x="517.2727272727273" y="240" as="sourcePoint" />
            <mxPoint x="484.5454545454545" y="280" as="targetPoint" />
          </mxGeometry>
        </mxCell>
        <mxCell id="DTTRx-GcrtWQAFBJk2kP-4" value="" style="endArrow=classic;html=1;rounded=0;fontFamily=宋体;" edge="1" parent="1" source="DTTRx-GcrtWQAFBJk2kP-1" target="DTTRx-GcrtWQAFBJk2kP-2">
          <mxGeometry width="50" height="50" relative="1" as="geometry">
            <mxPoint x="460" y="400" as="sourcePoint" />
            <mxPoint x="460" y="380" as="targetPoint" />
          </mxGeometry>
        </mxCell>
        <mxCell id="DTTRx-GcrtWQAFBJk2kP-13" value="" style="edgeStyle=orthogonalEdgeStyle;rounded=0;orthogonalLoop=1;jettySize=auto;html=1;" edge="1" parent="1" source="DTTRx-GcrtWQAFBJk2kP-6" target="DTTRx-GcrtWQAFBJk2kP-11">
          <mxGeometry relative="1" as="geometry" />
        </mxCell>
        <mxCell id="DTTRx-GcrtWQAFBJk2kP-6" value="筛选店铺及时间段" style="rounded=0;whiteSpace=wrap;html=1;" vertex="1" parent="1">
          <mxGeometry x="390" y="570" width="120" height="60" as="geometry" />
        </mxCell>
        <mxCell id="DTTRx-GcrtWQAFBJk2kP-7" value="" style="endArrow=classic;html=1;rounded=0;fontFamily=宋体;" edge="1" parent="1" target="DTTRx-GcrtWQAFBJk2kP-6" source="DTTRx-GcrtWQAFBJk2kP-2">
          <mxGeometry width="50" height="50" relative="1" as="geometry">
            <mxPoint x="450" y="530" as="sourcePoint" />
            <mxPoint x="460" y="480" as="targetPoint" />
          </mxGeometry>
        </mxCell>
        <mxCell id="DTTRx-GcrtWQAFBJk2kP-11" value="店铺发货/退货总金额" style="shape=document;whiteSpace=wrap;html=1;boundedLbl=1;fontFamily=宋体;" vertex="1" parent="1">
          <mxGeometry x="280" y="670" width="120" height="80" as="geometry" />
        </mxCell>
        <mxCell id="DTTRx-GcrtWQAFBJk2kP-16" value="" style="edgeStyle=orthogonalEdgeStyle;rounded=0;orthogonalLoop=1;jettySize=auto;html=1;" edge="1" parent="1" source="Na3WE7RVyZAJyNIohhtw-51" target="Na3WE7RVyZAJyNIohhtw-75">
          <mxGeometry relative="1" as="geometry">
            <mxPoint x="470.0000000000002" y="100" as="sourcePoint" />
            <mxPoint x="390.0000000000002" y="160" as="targetPoint" />
          </mxGeometry>
        </mxCell>
        <mxCell id="DTTRx-GcrtWQAFBJk2kP-18" value="类目/商品发货/退货总金额" style="shape=document;whiteSpace=wrap;html=1;boundedLbl=1;fontFamily=宋体;" vertex="1" parent="1">
          <mxGeometry x="490" y="670" width="120" height="80" as="geometry" />
        </mxCell>
        <mxCell id="DTTRx-GcrtWQAFBJk2kP-19" value="" style="edgeStyle=orthogonalEdgeStyle;rounded=0;orthogonalLoop=1;jettySize=auto;html=1;" edge="1" parent="1" source="DTTRx-GcrtWQAFBJk2kP-6" target="DTTRx-GcrtWQAFBJk2kP-18">
          <mxGeometry relative="1" as="geometry">
            <mxPoint x="460.0000000000002" y="640" as="sourcePoint" />
            <mxPoint x="340.0000000000002" y="680" as="targetPoint" />
          </mxGeometry>
        </mxCell>
        <mxCell id="DTTRx-GcrtWQAFBJk2kP-22" value="" style="edgeStyle=orthogonalEdgeStyle;rounded=0;orthogonalLoop=1;jettySize=auto;html=1;" edge="1" parent="1" source="DTTRx-GcrtWQAFBJk2kP-21" target="DTTRx-GcrtWQAFBJk2kP-11">
          <mxGeometry relative="1" as="geometry" />
        </mxCell>
        <mxCell id="DTTRx-GcrtWQAFBJk2kP-27" value="" style="edgeStyle=orthogonalEdgeStyle;rounded=0;orthogonalLoop=1;jettySize=auto;html=1;" edge="1" parent="1" source="DTTRx-GcrtWQAFBJk2kP-21" target="DTTRx-GcrtWQAFBJk2kP-25">
          <mxGeometry relative="1" as="geometry" />
        </mxCell>
        <mxCell id="DTTRx-GcrtWQAFBJk2kP-21" value="指标核算公式" style="rounded=0;whiteSpace=wrap;html=1;fontFamily=宋体;" vertex="1" parent="1">
          <mxGeometry x="380" y="790" width="120" height="60" as="geometry" />
        </mxCell>
        <mxCell id="DTTRx-GcrtWQAFBJk2kP-23" value="" style="edgeStyle=orthogonalEdgeStyle;rounded=0;orthogonalLoop=1;jettySize=auto;html=1;" edge="1" parent="1" source="DTTRx-GcrtWQAFBJk2kP-21" target="DTTRx-GcrtWQAFBJk2kP-18">
          <mxGeometry relative="1" as="geometry">
            <mxPoint x="450.0000000000002" y="800" as="sourcePoint" />
            <mxPoint x="350.0000000000002" y="760" as="targetPoint" />
          </mxGeometry>
        </mxCell>
        <mxCell id="DTTRx-GcrtWQAFBJk2kP-24" value="&lt;span style=&quot;white-space: pre;&quot;&gt;	&lt;/span&gt;&amp;nbsp;退货率" style="html=1;dashed=0;whitespace=wrap;shape=mxgraph.dfd.dataStoreID;align=left;spacingLeft=3;points=[[0,0],[0.5,0],[1,0],[0,0.5],[1,0.5],[0,1],[0.5,1],[1,1]];" vertex="1" parent="1">
          <mxGeometry x="390" y="980" width="100" height="30" as="geometry" />
        </mxCell>
        <mxCell id="DTTRx-GcrtWQAFBJk2kP-25" value="汇总存储" style="rounded=0;whiteSpace=wrap;html=1;fontFamily=宋体;" vertex="1" parent="1">
          <mxGeometry x="380" y="890" width="120" height="60" as="geometry" />
        </mxCell>
        <mxCell id="DTTRx-GcrtWQAFBJk2kP-26" value="" style="endArrow=classic;html=1;rounded=0;fontFamily=宋体;" edge="1" parent="1" source="DTTRx-GcrtWQAFBJk2kP-25" target="DTTRx-GcrtWQAFBJk2kP-24">
          <mxGeometry width="50" height="50" relative="1" as="geometry">
            <mxPoint x="450" y="860" as="sourcePoint" />
            <mxPoint x="450" y="900" as="targetPoint" />
          </mxGeometry>
        </mxCell>
      </root>
    </mxGraphModel>
  </diagram>
</mxfile>
